<?xml version="1.0" encoding="UTF-8" standalone="no"?>
<!-- Created with Inkscape (http://www.inkscape.org/) -->

<svg
   xmlns:dc="http://purl.org/dc/elements/1.1/"
   xmlns:cc="http://creativecommons.org/ns#"
   xmlns:rdf="http://www.w3.org/1999/02/22-rdf-syntax-ns#"
   xmlns:svg="http://www.w3.org/2000/svg"
   xmlns="http://www.w3.org/2000/svg"
   xmlns:sodipodi="http://sodipodi.sourceforge.net/DTD/sodipodi-0.dtd"
   xmlns:inkscape="http://www.inkscape.org/namespaces/inkscape"
   width="532.7937mm"
   height="102.98701mm"
   viewBox="0 0 532.7937 102.98701"
   version="1.1"
   id="svg8"
   inkscape:version="0.92.3 (2405546, 2018-03-11)"
   sodipodi:docname="JRT_Y.svg">
  <defs
     id="defs2" />
  <sodipodi:namedview
     id="base"
     pagecolor="#ffffff"
     bordercolor="#666666"
     borderopacity="1.0"
     inkscape:pageopacity="0.0"
     inkscape:pageshadow="2"
     inkscape:zoom="0.35"
     inkscape:cx="1011.8723"
     inkscape:cy="141.76134"
     inkscape:document-units="mm"
     inkscape:current-layer="layer1"
     showgrid="false"
     inkscape:window-width="1280"
     inkscape:window-height="739"
     inkscape:window-x="0"
     inkscape:window-y="0"
     inkscape:window-maximized="1" />
  <metadata
     id="metadata5">
    <rdf:RDF>
      <cc:Work
         rdf:about="">
        <dc:format>image/svg+xml</dc:format>
        <dc:type
           rdf:resource="http://purl.org/dc/dcmitype/StillImage" />
        <dc:title></dc:title>
      </cc:Work>
    </rdf:RDF>
  </metadata>
  <g
     inkscape:label="Layer 1"
     inkscape:groupmode="layer"
     id="layer1"
     transform="translate(161.89122,-83.354003)">
    <path
       style="fill:#ffea00;stroke-width:0.07288609;fill-opacity:1"
       d="m 57.081864,170.48935 c 8.71284,-8.719 15.94304,-16.00032 16.0671,-16.18071 1.02075,-1.48419 1.35161,-2.3315 1.35192,-3.46209 4.6e-4,-2.10371 -1.5292,-3.6106 -4.73692,-4.66604 -0.52654,-0.17325 -1.07055,-0.33299 -1.2089,-0.35498 -0.13836,-0.022 -0.29793,-0.0565 -0.35461,-0.0766 -0.12269,-0.0436 -0.27912,-0.0727 -1.37855,-0.25602 -0.89302,-0.14894 -1.2087,-0.18491 -2.58746,-0.29486 -0.52922,-0.0422 -9.30855,-0.0704 -22.23016,-0.0714 l -21.35552,-0.002 10.27674,-10.27694 10.27674,-10.27694 21.42861,-0.002 c 12.99001,-9.1e-4 21.78739,-0.0292 22.33968,-0.0716 0.50109,-0.0385 1.17346,-0.0891 1.49417,-0.11247 0.52752,-0.0385 2.57554,-0.27989 3.02477,-0.35658 0.10022,-0.0171 0.4446,-0.0676 0.7653,-0.11228 1.82331,-0.2538 6.29958,-1.26683 7.83526,-1.77319 0.18039,-0.0595 0.57397,-0.18146 0.87463,-0.27107 0.73527,-0.21915 1.653816,-0.52613 2.405236,-0.80384 0.34074,-0.12593 0.79379,-0.29232 1.00678,-0.36976 0.52052,-0.18924 1.54626,-0.61495 2.12732,-0.88291 0.26057,-0.12017 0.71975,-0.33185 1.02041,-0.47042 0.88344,-0.40717 1.19038,-0.56056 1.40305,-0.70116 0.11025,-0.0729 0.20044,-0.10987 0.20044,-0.0822 0,0.0277 0.041,0.0167 0.0911,-0.0245 0.0501,-0.0411 0.2387,-0.15443 0.41909,-0.25176 0.1804,-0.0973 0.45098,-0.24808 0.60131,-0.335 0.15033,-0.0869 0.39632,-0.22748 0.54665,-0.31235 0.15033,-0.0849 0.36039,-0.21606 0.46679,-0.29154 0.10641,-0.0755 0.21861,-0.13724 0.24936,-0.13724 0.0308,0 0.10775,-0.0469 0.17113,-0.10428 0.0634,-0.0574 0.19823,-0.14755 0.29966,-0.20044 0.24599,-0.12824 1.00146,-0.67028 1.53084,-1.09834 0.23548,-0.19041 0.45039,-0.34621 0.47757,-0.34621 0.0272,0 0.36186,-0.2868 0.74372,-0.63732 1.54199,-1.41544 2.51525,-2.79993 2.86593,-4.07684 0.52831,-1.92367 -0.26332,-3.5861 -2.27249,-4.77226 -2.00596,-1.18427 -4.68183,-1.82718 -8.45014,-2.03025 -0.77898,-0.042 -25.449226,-0.0694 -63.374346,-0.0705 l -62.09885,-0.002 10.24038,-10.240577 10.24039029,-10.24058 63.77532971,0.009 c 35.07644,0.005 64.234526,0.0347 64.795746,0.0661 0.56123,0.0314 1.44679,0.0777 1.96792,0.10291 0.52114,0.0252 1.04592,0.0598 1.16619,0.0769 0.12025,0.0171 0.49744,0.0502 0.83818,0.0734 0.61694,0.0422 2.4369,0.21833 3.06122,0.29626 0.18039,0.0225 0.42638,0.0531 0.54664,0.068 1.17766,0.14593 1.72236,0.22137 2.66996,0.36979 1.97766,0.30977 4.06738,0.73971 6.0281,1.24024 1.29666,0.33101 1.42375,0.36764 2.67218,0.77018 0.40087,0.12926 0.76165,0.24156 0.80174,0.24957 0.269,0.0537 2.38641,0.88131 3.20699,1.25344 4.02003,1.82306 6.82888,4.00446 8.60811,6.68518 1.68182,2.53397 2.16797,5.770287 1.33026,8.855657 -0.38668,1.42421 -1.03906,3.00704 -1.66726,4.04518 -0.12128,0.20044 -0.24207,0.41363 -0.26842,0.47376 -0.0264,0.0601 -0.23879,0.401 -0.47211,0.75748 -0.2333,0.35648 -0.42419,0.66051 -0.42419,0.67562 0,0.0326 -1.09162,1.47224 -1.4148,1.86588 -0.12382,0.15081 -0.52033,0.60315 -0.88111,1.00519 -0.36078,0.40204 -0.90197,1.00565 -1.20262,1.34135 -0.30065,0.33571 -0.81587,0.85093 -1.14493,1.14495 -0.32906,0.29402 -0.95823,0.86257 -1.39816,1.26344 -0.43994,0.40088 -1.08908,0.96594 -1.44253,1.2557 -1.61587,1.32466 -1.99041,1.62331 -2.0359,1.62331 -0.0268,0 -0.22151,0.14759 -0.43267,0.32798 -0.21115,0.18039 -0.40683,0.32799 -0.43483,0.32799 -0.028,0 -0.25237,0.15691 -0.49858,0.3487 -0.47749,0.37193 -0.98713,0.73389 -1.204,0.85511 -0.0729,0.0407 -0.27692,0.18078 -0.4534,0.31121 -0.502,0.37101 -1.03937,0.74041 -1.15687,0.79524 -0.0589,0.0275 -0.41233,0.25691 -0.78533,0.50981 -0.373,0.25289 -0.69888,0.4598 -0.72417,0.4598 -0.0253,0 -0.15348,0.082 -0.28487,0.18222 -0.13139,0.10022 -0.25978,0.18222 -0.28529,0.18222 -0.0255,0 -0.18941,0.0984 -0.36421,0.21865 -0.17479,0.12027 -0.34211,0.21866 -0.37182,0.21866 -0.0297,0 -0.1058,0.0459 -0.16909,0.10193 -0.0633,0.0561 -0.23806,0.17086 -0.38838,0.25511 -0.15033,0.0842 -0.39632,0.22226 -0.54665,0.3067 -0.15033,0.0844 -0.30612,0.17935 -0.34621,0.21089 -0.0725,0.0571 -0.39109,0.24022 -0.94752,0.54476 -0.16034,0.0878 -0.42274,0.23513 -0.58308,0.32749 -0.16035,0.0924 -0.45554,0.25743 -0.65598,0.36684 -0.20044,0.1094 -0.56122,0.30694 -0.80175,0.43896 -2.13484,1.17178 -6.87455,3.49245 -8.637,4.22887 -0.22048,0.0921 -0.43367,0.19124 -0.47376,0.22026 -0.0401,0.029 -0.45007,0.207 -0.91108,0.39552 -0.461,0.18852 -0.98578,0.4161 -1.16617,0.50573 -0.1804,0.0896 -0.35216,0.16944 -0.38172,0.17733 -0.0296,0.008 -0.20994,0.0823 -0.40087,0.16524 -0.19093,0.083 -0.37995,0.15739 -0.42003,0.16531 -0.0401,0.008 -0.15489,0.0594 -0.25511,0.11433 -0.10021,0.055 -0.18221,0.0913 -0.18221,0.0809 0,-0.0105 -0.082,0.0138 -0.18221,0.0539 -0.10022,0.0401 -0.7398,0.29256 -1.42129,0.56094 -0.68148,0.26838 -1.48376,0.58618 -1.78283,0.70622 -0.29907,0.12003 -0.59426,0.23026 -0.65598,0.24494 -0.0617,0.0147 -0.50578,0.17827 -0.98683,0.36352 -0.48105,0.18525 -0.92383,0.34776 -0.98396,0.36112 -0.0601,0.0134 -0.23572,0.078 -0.3902,0.14369 -0.25488,0.10832 -0.27093,0.1308 -0.17347,0.24279 0.57238,0.65764 1.41053,2.17699 1.76719,3.20346 0.44283,1.2745 0.5626,2.00052 0.56802,3.44326 0.006,1.71575 -0.19629,2.82734 -0.83746,4.59182 -0.37538,1.03302 -1.3438,2.95457 -1.78504,3.54186 -0.0932,0.12405 -0.16944,0.25052 -0.16944,0.28106 0,0.0305 -0.0936,0.17503 -0.20807,0.3211 -0.11444,0.14608 -0.22104,0.30006 -0.23689,0.34218 -0.0488,0.12984 -0.73599,1.04851 -1.16361,1.55566 -0.22327,0.2648 -0.43646,0.53596 -0.47375,0.60259 -0.20723,0.37015 -2.69614,2.9496 -7.39061,7.65945 l -5.28515,5.30246 h 56.66816 56.66815 l -10.24022,10.24043 -10.24027,10.24042 -77.2769,0.0183 -77.276916,0.0183 z m -185.704014,15.73926 c -1.68104,-0.0845 -2.66478,-0.14263 -3.02477,-0.17874 -0.18039,-0.0181 -0.59038,-0.0505 -0.91107,-0.0721 -1.34233,-0.0902 -4.45141,-0.43621 -5.53935,-0.6165 -0.24052,-0.0399 -0.94569,-0.15601 -1.56706,-0.2581 -0.62135,-0.10209 -1.27732,-0.21737 -1.45771,-0.25618 -0.18039,-0.0388 -0.44278,-0.0888 -0.58309,-0.11119 -0.44841,-0.0714 -2.40896,-0.52795 -3.42565,-0.79766 -7.26148,-1.9264 -12.27555,-4.85166 -14.88205,-8.68233 -1.91836,-2.81932 -2.36565,-5.98181 -1.34937,-9.54053 0.28063,-0.98271 1.0051,-2.65777 1.59194,-3.68074 0.12646,-0.22049 0.26603,-0.46739 0.3101,-0.54868 0.0441,-0.0813 0.27695,-0.43599 0.51747,-0.78822 0.24053,-0.35224 0.48651,-0.71701 0.54665,-0.81062 0.43759,-0.68117 1.56684,-2.04509 2.84001,-3.43022 l 0.83567,-0.90913 h 20.54536 20.54537 l -0.19273,0.23688 c -0.10599,0.13028 -0.37162,0.45377 -0.59026,0.71886 -0.21865,0.2651 -0.39754,0.50507 -0.39754,0.53329 0,0.0282 -0.0784,0.15571 -0.17422,0.28332 -0.27688,0.36872 -0.67062,1.2791 -0.80008,1.8499 -0.50386,2.22138 0.74363,4.02214 3.59819,5.19404 0.93271,0.38291 0.99531,0.40316 2.15015,0.69557 2.15004,0.54439 4.04348,0.73404 7.17928,0.71908 2.881414,-0.0138 5.322824,-0.23616 8.345454,-0.76026 3.28228,-0.56911 5.77558,-1.19303 8.9135,-2.23048 0.65317,-0.21594 1.32555,-0.44415 1.49417,-0.50713 0.80796,-0.30174 2.00361,-0.78187 2.1816,-0.87606 0.10925,-0.0578 0.21569,-0.10409 0.23654,-0.10283 0.0209,0.001 0.22253,-0.0794 0.44819,-0.17916 0.22566,-0.0998 0.42455,-0.18145 0.442,-0.18145 0.0175,0 0.31675,-0.13788 0.66513,-0.30642 0.34837,-0.16853 0.6498,-0.30948 0.66985,-0.31322 0.0776,-0.0145 1.5524,-0.78891 2.13192,-1.11949 0.15033,-0.0857 0.39021,-0.22212 0.53307,-0.30305 0.35875,-0.20321 0.55751,-0.32856 1.26219,-0.79602 0.33598,-0.22288 0.66397,-0.43796 0.72886,-0.47795 0.0649,-0.04 0.35028,-0.25729 0.63417,-0.48287 0.28391,-0.22557 0.5955,-0.45077 0.69242,-0.50043 0.0969,-0.0497 7.37603,-7.28588 16.17577,-16.0805 l 15.99953,-15.99021 h 20.58923 20.58921029 L -15.539446,139.99266 c -8.47843,8.48187 -15.71764,15.68939 -16.08711,16.01672 -0.36949,0.32733 -1.0312,0.92313 -1.47047,1.324 -0.93822,0.85619 -3.37427,2.879 -3.46715,2.879 -0.0244,0 -0.2318,0.14635 -0.46091,0.32521 -0.75025,0.58574 -1.39438,1.05963 -1.44027,1.05963 -0.0248,0 -0.18514,0.11479 -0.35637,0.2551 -0.17122,0.1403 -0.33502,0.2551 -0.364,0.2551 -0.029,0 -0.24451,0.1476 -0.47895,0.32798 -0.23443,0.1804 -0.44861,0.32799 -0.47595,0.32799 -0.0274,0 -0.17395,0.0984 -0.32579,0.21866 -0.15185,0.12026 -0.29515,0.21866 -0.31845,0.21866 -0.0233,0 -0.35681,0.21319 -0.74113,0.47376 -0.38432,0.26057 -0.71279,0.47376 -0.72992,0.47376 -0.0171,0 -0.26929,0.15269 -0.56034,0.33934 -0.50346,0.32284 -0.63914,0.40383 -1.27624,0.76172 -0.15033,0.0845 -0.30613,0.17934 -0.34621,0.21089 -0.0401,0.0316 -0.19588,0.12644 -0.34621,0.21089 -0.15033,0.0844 -0.39632,0.22264 -0.54665,0.30708 -0.15032,0.0845 -0.30612,0.17935 -0.34621,0.21089 -0.0888,0.0699 -0.50783,0.3088 -1.09329,0.62341 -0.53221,0.28601 -0.98571,0.53471 -1.42128,0.77944 -0.18039,0.10136 -0.78672,0.41998 -1.3474,0.70805 -0.56069,0.28806 -1.06087,0.55815 -1.11152,0.60019 -0.0507,0.042 -0.0921,0.0556 -0.0921,0.0302 0,-0.0255 -0.123,0.0287 -0.27332,0.12021 -0.15033,0.0916 -0.42092,0.23702 -0.60131,0.32318 -0.1804,0.0862 -0.80357,0.38472 -1.38484,0.66344 -2.11535,1.01433 -2.46904,1.18107 -2.50532,1.18107 -0.0203,0 -0.35069,0.1476 -0.73418,0.32799 -0.38349,0.18039 -0.71282,0.32798 -0.73185,0.32798 -0.019,0 -0.3058,0.12553 -0.6373,0.27894 -0.33149,0.15342 -1.65227,0.70794 -2.93506,1.23226 -2.21827,0.9067 -3.07608,1.24642 -4.4825,1.77523 -0.34073,0.12811 -0.77941,0.29652 -0.97482,0.37423 -0.19541,0.0777 -0.40861,0.15236 -0.47377,0.16589 -0.0651,0.0136 -0.24786,0.0796 -0.40601,0.14676 -0.15816,0.0672 -0.33856,0.1331 -0.40088,0.14646 -0.0623,0.0134 -0.3921,0.12739 -0.73284,0.25341 -1.00632,0.37214 -5.86137,1.98248 -6.94241,2.30269 -0.19041,0.0564 -0.5102,0.15174 -0.71064,0.21187 -0.20043,0.0601 -0.52022,0.15571 -0.71063,0.21239 -0.49003,0.14588 -2.14682,0.62892 -2.27769,0.66406 -0.0601,0.0162 -0.33892,0.0942 -0.61954,0.17337 -2.1209,0.59861 -7.41632,1.94953 -8.19968,2.09184 -0.10022,0.0182 -0.22659,0.0488 -0.28083,0.068 -0.0877,0.0311 -0.82901,0.19764 -1.32267,0.29721 -0.10022,0.0202 -0.60859,0.13103 -1.12973,0.24625 -1.1301,0.24986 -4.86705,0.99735 -5.64867,1.12988 -0.14031,0.0238 -0.63229,0.1098 -1.09329,0.19114 -2.24867,0.39673 -5.423064,0.89328 -6.741974,1.05462 -0.16034,0.0196 -0.50473,0.0659 -0.76529,0.10286 -0.26058,0.037 -0.76896,0.10319 -1.12974,0.1472 -0.36079,0.044 -0.75437,0.0932 -0.87464,0.10924 -0.12026,0.0161 -0.54664,0.0649 -0.94752,0.10856 -0.40087,0.0436 -0.99125,0.10919 -1.31194,0.14569 -0.32071,0.0365 -0.81269,0.085 -1.0933,0.10776 -0.2806,0.0228 -0.64139,0.0572 -0.80174,0.0764 -0.6955,0.0836 -4.61467,0.37369 -5.86734,0.43432 -0.461,0.0223 -1.52545,0.0726 -2.36543,0.11171 -1.73479,0.0808 -8.12193,0.077 -9.7701,-0.006 z m 345.06102,-61.67577 c 11.31461,-11.31468 20.57203,-20.59673 20.57203,-20.62676 0,-0.03 -16.21074,-0.0546 -36.02385,-0.0546 h -36.02384 l 10.24024,-10.240437 10.24025,-10.24044 92.72935,-0.0183 92.7294,-0.0183 -10.2585,10.25872 -10.25855,10.258707 h -36.07878 -36.07873 l -20.62664,20.62677 -20.62669,20.62676 H 216.42068 195.8668 Z"
       id="path75"
       inkscape:connector-curvature="0" />
  </g>
</svg>
